<svg xmlns="http://www.w3.org/2000/svg" width="545" height="544" viewBox="-680 -10 545 544">
  <defs>
    <linearGradient id="a" x1="50%" x2="50%" y1="0%" y2="99.9998%">
      <stop stop-color="#FFF" offset="0%"/>
      <stop stop-color="#E5E5E6" offset="100%"/>
    </linearGradient>
    <linearGradient id="b" x1="50%" x2="50%" y1="-.0002%" y2="100.0006%">
      <stop stop-color="#FFF" offset="0%"/>
      <stop stop-color="#E5E5E6" offset="100%"/>
    </linearGradient>
    <linearGradient id="c" x1="50%" x2="50%" y1="0%" y2="100.0001%">
      <stop stop-color="#FFF" offset="0%"/>
      <stop stop-color="#E5E5E6" offset="100%"/>
    </linearGradient>
  </defs>
  <path fill="#2478DF" fill-rule="evenodd" d="M-679.271-9.93h543.85v543.85h-543.85z"/>
  <g fill="none" fill-rule="evenodd">
    <g fill="#4778BA" opacity=".5">
      <path d="M-254.894 391.994h-259.402l-1.759-259.348h261.161"/>
      <path d="M-452.01 400.879c0 36.343-65.809 63.676-65.809 63.676s-65.809-27.333-65.809-63.676c0-10.071.63-84.923.63-84.923s38.905-11.389 65.179-11.389c25.697 0 65.176 11.389 65.176 11.389s.633 74.276.633 84.923z"/>
    </g>
    <path fill="url(#a)" d="M65.412.425h261.161v259.349H65.412z" transform="translate(-591 118)"/>
    <path fill="url(#b)" d="M65.412.425h261.161v48.711H65.412z" transform="translate(-591 118)"/>
    <path fill="#4A77DB" d="M-287.39 151.725c-2.255 0-4.457-.923-6.052-2.519-1.596-1.596-2.519-3.798-2.519-6.052 0-2.268.923-4.47 2.519-6.065 1.596-1.596 3.798-2.506 6.052-2.506 2.255 0 4.471.91 6.067 2.506 1.596 1.596 2.505 3.798 2.505 6.065 0 2.255-.909 4.457-2.505 6.052-1.596 1.596-3.812 2.519-6.067 2.519zm-139.957 141.153c-1.34 0-2.68-.511-3.702-1.533l-23.304-23.303c-2.044-2.045-2.044-5.36 0-7.405l23.304-23.303c2.043-2.043 5.359-2.043 7.404 0 2.044 2.045 2.044 5.36 0 7.404l-19.602 19.602 19.602 19.602c2.044 2.044 2.044 5.359 0 7.404-1.023 1.021-2.363 1.532-3.702 1.532zm70.986 0c-1.34 0-2.68-.511-3.702-1.533-2.044-2.045-2.044-5.36 0-7.404l19.602-19.602-19.602-19.602c-2.044-2.044-2.044-5.359 0-7.404 2.045-2.043 5.36-2.043 7.404 0l23.304 23.303c2.044 2.045 2.044 5.36 0 7.405l-23.304 23.303c-1.022 1.023-2.362 1.534-3.702 1.534zm-48.647-2.392c-.905 0-1.822-.234-2.657-.728-2.49-1.47-3.316-4.68-1.846-7.169l24.693-41.821c1.469-2.49 4.682-3.317 7.169-1.846 2.49 1.47 3.316 4.68 1.846 7.169l-24.693 41.821c-.975 1.654-2.721 2.574-4.512 2.574z"/>
    <path fill="#8392A7" d="M-505.06 304.273c20.632 0 52.33 9.144 52.33 9.144s.508 55.779.508 64.328h-52.661l-.177-73.472z" opacity=".5"/>
    <path fill="url(#c)" d="M133.455 271.005c0 36.689-66.435 64.282-66.435 64.282S.585 307.694.585 271.005c0-10.166.636-85.732.636-85.732s39.275-11.497 65.799-11.497c25.942 0 65.796 11.497 65.796 11.497s.639 74.983.639 85.732z" transform="translate(-591 118)"/>
  </g>
</svg>
